<?xml version="1.0" standalone="no"?><!DOCTYPE svg PUBLIC "-//W3C//DTD SVG 1.1//EN" "http://www.w3.org/Graphics/SVG/1.1/DTD/svg11.dtd"><svg t="1573459105014" class="icon" viewBox="0 0 1024 1024" version="1.1" xmlns="http://www.w3.org/2000/svg" p-id="3965" xmlns:xlink="http://www.w3.org/1999/xlink" width="16" height="16"><defs><style type="text/css"></style></defs><path d="M380.523457 725.649383c-7.585185 0-15.17037 7.585185-15.170371 15.17037s7.585185 15.17037 15.170371 15.17037h118.834568v93.550618c0 7.585185 7.585185 15.17037 15.17037 15.17037s15.17037-7.585185 15.17037-15.17037v-93.550618h118.834568c5.05679 0 12.641975-2.528395 15.170371-7.585185 2.528395-2.528395 2.528395-7.585185 0-10.11358 0-7.585185-7.585185-15.17037-15.170371-15.17037h-118.834568v-55.624692h118.834568c5.05679 0 12.641975-2.528395 15.170371-7.585185 2.528395-2.528395 2.528395-7.585185 0-10.11358 0-7.585185-7.585185-15.17037-15.170371-15.170371H537.283951l85.965432-126.419753c2.528395-2.528395 5.05679-7.585185 5.05679-12.641975s-2.528395-7.585185-7.585185-10.11358c-7.585185-5.05679-17.698765-2.528395-22.755556 5.05679L512 627.041975l-85.965432-131.476543c-2.528395-7.585185-15.17037-7.585185-22.755556-5.05679-7.585185 5.05679-7.585185 15.17037-5.05679 22.755556l85.965432 128.948148h-103.664197c-7.585185 0-15.17037 7.585185-15.170371 15.17037s7.585185 15.17037 15.170371 15.17037h118.834568v55.624692h-118.834568z" p-id="3966"></path><path d="M871.032099 518.320988c-35.397531-75.851852-85.965432-139.061728-141.590124-182.044445l-5.05679-5.05679H309.728395l-5.05679 2.528395c-55.624691 42.982716-106.192593 106.192593-146.646914 184.57284-35.397531 73.323457-55.624691 144.118519-55.624691 204.8 0 48.039506 10.11358 91.022222 32.869136 128.948148 22.755556 37.925926 53.096296 68.266667 93.550617 96.079012 75.851852 50.567901 176.987654 75.851852 285.708642 75.851852 108.720988 0 209.85679-27.812346 283.180247-75.851852 42.982716-27.812346 73.323457-60.681481 93.550617-96.079012 22.755556-40.454321 32.869136-85.965432 32.869136-128.948148-2.528395-65.738272-20.22716-136.533333-53.096296-204.8z m-159.288889-151.703704c53.096296 42.982716 98.607407 103.664198 131.476543 169.402469 32.869136 63.209877 50.567901 131.476543 50.567901 189.62963 0 80.908642-37.925926 149.175309-111.249382 194.686419C711.74321 965.846914 618.192593 991.130864 514.528395 991.130864c-101.135802 0-197.214815-25.283951-268.009876-70.795062-73.323457-48.039506-111.249383-116.306173-111.249383-194.686419 0-58.153086 17.698765-126.419753 53.096296-189.62963 30.340741-60.681481 75.851852-121.362963 134.004938-171.930864l389.37284 2.528395zM714.271605 283.180247H319.841975c-7.585185 0-15.17037 7.585185-15.17037 15.17037s7.585185 15.17037 15.17037 15.170371H714.271605c7.585185 0 15.17037-7.585185 15.17037-15.170371s-7.585185-15.17037-15.17037-15.17037zM294.558025 235.140741c2.528395 5.05679 2.528395 7.585185 5.05679 10.11358 10.11358 15.17037 22.755556 17.698765 27.812345 17.698765h374.20247c15.17037 0 25.283951-7.585185 27.812345-20.22716 7.585185-17.698765 17.698765-40.454321 25.283951-78.380247 7.585185-27.812346 7.585185-58.153086 7.585185-75.851852V80.908642c0-17.698765-15.17037-32.869136-32.869136-32.869136h-131.476543c-15.17037 0-30.340741 12.641975-32.869136 27.812346v2.528395c0 10.11358-2.528395 20.22716-15.17037 20.22716-25.283951 0-35.397531-42.982716-35.397531-50.567901 0-17.698765-17.698765-48.039506-65.738272-48.039506-25.283951 0-35.397531 10.11358-48.039506 20.22716-17.698765 12.641975-37.925926 25.283951-98.607407 27.812346h-2.528395c-17.698765 0-32.869136 15.17037-32.869136 32.869136v12.641975c0 15.17037 0 35.397531 2.528395 55.624692 5.05679 40.454321 20.22716 70.795062 25.283951 85.965432z m2.528395-146.646914c75.851852-2.528395 101.135802-22.755556 121.362963-35.397531l2.528395-2.528395c10.11358-7.585185 17.698765-10.11358 27.812345-10.11358 32.869136 0 35.397531 17.698765 35.397531 17.698765s2.528395 17.698765 10.113581 37.925926c12.641975 27.812346 32.869136 40.454321 58.153086 40.454321 25.283951 0 45.511111-20.22716 48.039506-50.567901h131.476543c0 15.17037 0 45.511111-7.585185 75.851852-5.05679 37.925926-15.17037 55.624691-22.755555 70.795062H327.42716l-2.528395-2.528395c-5.05679-7.585185-20.22716-35.397531-27.812345-78.380247-2.528395-22.755556-2.528395-42.982716 0-63.209877z" p-id="3967"></path></svg>